<svg id="Layer_1" data-name="Layer 1" xmlns="http://www.w3.org/2000/svg" viewBox="0 0 657.69 657.69"><defs><style>.cls-1{fill:#fff;fill-rule:evenodd;}</style></defs><title>Ohm</title><path class="cls-1" d="M648,598.88c-181.62,0-328.85,147.23-328.85,328.85S466.38,1256.57,648,1256.57s328.85-147.23,328.85-328.84S829.62,598.88,648,598.88Zm67.06,110.37c15.8,0,35.18,10.12,35.48,23.66.26,11.28-12.86,20.71-23.65,23.65-21.09,5.75-47.36-9.51-47.31-23.65C679.62,721.09,698,709.27,715.06,709.25ZM644.1,792c1.75-5,44.19,16.4,82.79,0,20.93-8.89,36.53-35.75,59.13-35.48,26.3.32,53.05,32.24,47.31,47.31-4.71,12.38-66.62,9.3-82.79,11.83-12.56,2-35.33,5.25-59.13,0C663.55,809.55,642.81,795.68,644.1,792Zm248.37,272c-18.62,21.24-52.12,47.32-94.62,47.31-24.05,0-58.31-7.81-82.79-35.48-34.31-38.8-28.57-93.73-23.65-94.62,3.9-.71,7.75,34.73,35.48,59.14,14.56,12.82,35.57,23.72,59.13,23.65,47.78-.13,100.13-44.72,94.62-94.62-4-36-37.24-68.32-71-71-41.34-3.23-58.91,41.3-106.45,47.31-24.46,3.09-64.09-11.43-71,0-.78,1.29-1.28,6.12,0,11.83,2.4,10.71,8.69,19.11,11.83,23.65a68.64,68.64,0,0,1,11.82,35.48c1.25,38.2-38.72,69.66-59.13,82.79-28.8,18.53-52.35,23.93-71,23.66-86.36-1.29-146.56-114.29-141.93-118.28,2.49-2.12,26.73,29.1,71,47.31,20.77,8.56,44.2,14,71,11.83,32-2.59,53-16.14,59.14-23.65,6.27-7.68,17.76-26.07,11.83-47.31s-25.94-31.82-35.49-35.48c-14.51-5.58-33.55-.68-47.3-11.83-5.71-4.62-13.19-13.93-11.83-23.66,1.34-9.57,10.79-14.6,23.65-23.65,12.45-8.76,21.28-17.77,23.66-23.66,6.33-15.67,1.78-37.36-11.83-47.31-6.43-4.69-23.28-7.95-47.31,0-16.35,5.42-42.18,28.09-59.14,23.66-14.21-3.72-25-21.3-23.65-35.48,2.67-28.53,54.71-47.54,94.62-47.31,33.11.19,82.47,13.82,94.62,47.31,12.38,34.16-27,72.3-11.83,94.62,7.22,10.59,24.2,13.95,47.31,11.82,41.12-3.79,64.51-29.64,106.44-59.13,41-28.84,72.49-38.91,94.62-35.49C852,830.41,872,840.69,892.47,863c29.23,31.81,36.7,74.42,35.48,106.44C926.53,1006.86,913.79,1039.74,892.47,1064.07Z" transform="translate(-319.15 -598.88)"/></svg>